<mxfile host="app.diagrams.net" modified="2023-12-04T09:15:26.891Z" agent="Mozilla/5.0 (X11; Linux x86_64; rv:121.0) Gecko/20100101 Firefox/121.0" etag="RZvZUvjEcIkrw2oEY_HM" version="22.1.5" type="github">
  <diagram name="Page-1" id="zx0pG-7hpyBVEzKPlUAn">
    <mxGraphModel dx="830" dy="458" grid="0" gridSize="10" guides="1" tooltips="1" connect="1" arrows="1" fold="1" page="1" pageScale="1" pageWidth="850" pageHeight="1100" math="0" shadow="0">
      <root>
        <mxCell id="0" />
        <mxCell id="1" parent="0" />
        <mxCell id="OaYVWKiQ-5mMIqRblU3S-19" value="" style="edgeStyle=orthogonalEdgeStyle;rounded=0;orthogonalLoop=1;jettySize=auto;html=1;" edge="1" parent="1" source="OaYVWKiQ-5mMIqRblU3S-1" target="OaYVWKiQ-5mMIqRblU3S-12">
          <mxGeometry relative="1" as="geometry" />
        </mxCell>
        <mxCell id="OaYVWKiQ-5mMIqRblU3S-1" value="" style="shape=image;html=1;verticalAlign=top;verticalLabelPosition=bottom;labelBackgroundColor=#ffffff;imageAspect=0;aspect=fixed;image=https://cdn0.iconfinder.com/data/icons/user-pictures/100/matureman2-128.png" vertex="1" parent="1">
          <mxGeometry x="192" y="234.01" width="44" height="44" as="geometry" />
        </mxCell>
        <mxCell id="OaYVWKiQ-5mMIqRblU3S-25" value="" style="edgeStyle=orthogonalEdgeStyle;rounded=0;orthogonalLoop=1;jettySize=auto;html=1;" edge="1" parent="1" source="OaYVWKiQ-5mMIqRblU3S-5" target="OaYVWKiQ-5mMIqRblU3S-8">
          <mxGeometry relative="1" as="geometry" />
        </mxCell>
        <mxCell id="OaYVWKiQ-5mMIqRblU3S-27" value="" style="edgeStyle=orthogonalEdgeStyle;rounded=0;orthogonalLoop=1;jettySize=auto;html=1;" edge="1" parent="1" source="OaYVWKiQ-5mMIqRblU3S-5" target="OaYVWKiQ-5mMIqRblU3S-7">
          <mxGeometry relative="1" as="geometry" />
        </mxCell>
        <mxCell id="OaYVWKiQ-5mMIqRblU3S-5" value="" style="image;html=1;image=img/lib/clip_art/networking/Cloud_Computer_Private_128x128.png" vertex="1" parent="1">
          <mxGeometry x="393" y="333" width="80" height="80" as="geometry" />
        </mxCell>
        <mxCell id="OaYVWKiQ-5mMIqRblU3S-6" value="" style="sketch=0;points=[[0,0,0],[0.25,0,0],[0.5,0,0],[0.75,0,0],[1,0,0],[0,1,0],[0.25,1,0],[0.5,1,0],[0.75,1,0],[1,1,0],[0,0.25,0],[0,0.5,0],[0,0.75,0],[1,0.25,0],[1,0.5,0],[1,0.75,0]];outlineConnect=0;fontColor=#232F3E;fillColor=#01A88D;strokeColor=#ffffff;dashed=0;verticalLabelPosition=bottom;verticalAlign=top;align=center;html=1;fontSize=12;fontStyle=0;aspect=fixed;shape=mxgraph.aws4.resourceIcon;resIcon=mxgraph.aws4.augmented_ai;" vertex="1" parent="1">
          <mxGeometry x="565" y="345" width="64" height="64" as="geometry" />
        </mxCell>
        <mxCell id="OaYVWKiQ-5mMIqRblU3S-7" value="" style="sketch=0;pointerEvents=1;shadow=0;dashed=0;html=1;strokeColor=none;fillColor=#505050;labelPosition=center;verticalLabelPosition=bottom;verticalAlign=top;outlineConnect=0;align=center;shape=mxgraph.office.devices.cell_phone_iphone_proportional;" vertex="1" parent="1">
          <mxGeometry x="293" y="358.5" width="17.5" height="29" as="geometry" />
        </mxCell>
        <mxCell id="OaYVWKiQ-5mMIqRblU3S-8" value="" style="image;points=[];aspect=fixed;html=1;align=center;shadow=0;dashed=0;image=img/lib/allied_telesis/computer_and_terminals/Personal_Computer_with_Server.svg;" vertex="1" parent="1">
          <mxGeometry x="401.8" y="456" width="62.400000000000006" height="62.400000000000006" as="geometry" />
        </mxCell>
        <mxCell id="OaYVWKiQ-5mMIqRblU3S-23" value="" style="edgeStyle=orthogonalEdgeStyle;rounded=0;orthogonalLoop=1;jettySize=auto;html=1;" edge="1" parent="1" source="OaYVWKiQ-5mMIqRblU3S-17" target="OaYVWKiQ-5mMIqRblU3S-5">
          <mxGeometry relative="1" as="geometry" />
        </mxCell>
        <mxCell id="OaYVWKiQ-5mMIqRblU3S-17" value="" style="verticalLabelPosition=bottom;html=1;verticalAlign=top;align=center;strokeColor=none;fillColor=#00BEF2;shape=mxgraph.azure.mobile_services;pointerEvents=1;" vertex="1" parent="1">
          <mxGeometry x="416.75" y="231.01" width="32.5" height="50" as="geometry" />
        </mxCell>
        <mxCell id="OaYVWKiQ-5mMIqRblU3S-18" value="" style="group" vertex="1" connectable="0" parent="1">
          <mxGeometry x="276" y="226.01" width="59.99000000000001" height="59.99000000000001" as="geometry" />
        </mxCell>
        <mxCell id="OaYVWKiQ-5mMIqRblU3S-14" value="" style="whiteSpace=wrap;html=1;aspect=fixed;" vertex="1" parent="OaYVWKiQ-5mMIqRblU3S-18">
          <mxGeometry width="59.99" height="59.99" as="geometry" />
        </mxCell>
        <mxCell id="OaYVWKiQ-5mMIqRblU3S-12" value="&lt;br&gt;" style="shape=mxgraph.signs.healthcare.cardiology;html=1;pointerEvents=1;fillColor=#000000;strokeColor=none;verticalLabelPosition=bottom;verticalAlign=top;align=center;sketch=0;textOpacity=80;fillOpacity=100;strokeOpacity=80;aspect=fixed;" vertex="1" parent="OaYVWKiQ-5mMIqRblU3S-18">
          <mxGeometry x="5" y="5.25" width="50" height="49.49" as="geometry" />
        </mxCell>
        <mxCell id="OaYVWKiQ-5mMIqRblU3S-22" value="" style="edgeStyle=orthogonalEdgeStyle;rounded=0;orthogonalLoop=1;jettySize=auto;html=1;" edge="1" parent="1" source="OaYVWKiQ-5mMIqRblU3S-14" target="OaYVWKiQ-5mMIqRblU3S-17">
          <mxGeometry relative="1" as="geometry" />
        </mxCell>
        <mxCell id="OaYVWKiQ-5mMIqRblU3S-30" value="" style="html=1;shadow=0;dashed=0;align=center;verticalAlign=middle;shape=mxgraph.arrows2.twoWayArrow;dy=0.65;dx=22;" vertex="1" parent="1">
          <mxGeometry x="480" y="367.5" width="83" height="10" as="geometry" />
        </mxCell>
        <mxCell id="OaYVWKiQ-5mMIqRblU3S-32" value="" style="group" vertex="1" connectable="0" parent="1">
          <mxGeometry x="253" y="444" width="102" height="83.20000000000005" as="geometry" />
        </mxCell>
        <mxCell id="OaYVWKiQ-5mMIqRblU3S-31" value="" style="image;html=1;image=img/lib/clip_art/people/Suit_Woman_128x128.png;aspect=fixed;" vertex="1" parent="OaYVWKiQ-5mMIqRblU3S-32">
          <mxGeometry x="22" width="80" height="80" as="geometry" />
        </mxCell>
        <mxCell id="OaYVWKiQ-5mMIqRblU3S-15" value="" style="image;html=1;image=img/lib/clip_art/people/Suit_Man_Green_128x128.png;aspect=fixed;" vertex="1" parent="OaYVWKiQ-5mMIqRblU3S-32">
          <mxGeometry y="3.1999999999999886" width="80" height="80" as="geometry" />
        </mxCell>
        <mxCell id="OaYVWKiQ-5mMIqRblU3S-36" value="" style="endArrow=classic;html=1;rounded=0;entryX=0.615;entryY=0.02;entryDx=0;entryDy=0;entryPerimeter=0;" edge="1" parent="1" source="OaYVWKiQ-5mMIqRblU3S-7" target="OaYVWKiQ-5mMIqRblU3S-15">
          <mxGeometry width="50" height="50" relative="1" as="geometry">
            <mxPoint x="104" y="448" as="sourcePoint" />
            <mxPoint x="306" y="435" as="targetPoint" />
          </mxGeometry>
        </mxCell>
        <mxCell id="OaYVWKiQ-5mMIqRblU3S-38" value="" style="group" vertex="1" connectable="0" parent="1">
          <mxGeometry x="377.5" y="550" width="111" height="80" as="geometry" />
        </mxCell>
        <mxCell id="OaYVWKiQ-5mMIqRblU3S-16" value="" style="image;html=1;image=img/lib/clip_art/people/Doctor_Woman_128x128.png" vertex="1" parent="OaYVWKiQ-5mMIqRblU3S-38">
          <mxGeometry x="31" width="80" height="80" as="geometry" />
        </mxCell>
        <mxCell id="OaYVWKiQ-5mMIqRblU3S-37" value="" style="image;html=1;image=img/lib/clip_art/people/Doctor_Man_128x128.png;aspect=fixed;" vertex="1" parent="OaYVWKiQ-5mMIqRblU3S-38">
          <mxGeometry width="80" height="80" as="geometry" />
        </mxCell>
        <mxCell id="OaYVWKiQ-5mMIqRblU3S-40" value="" style="endArrow=classic;html=1;rounded=0;entryX=0.691;entryY=0.02;entryDx=0;entryDy=0;entryPerimeter=0;" edge="1" parent="1" source="OaYVWKiQ-5mMIqRblU3S-8" target="OaYVWKiQ-5mMIqRblU3S-37">
          <mxGeometry width="50" height="50" relative="1" as="geometry">
            <mxPoint x="339" y="462" as="sourcePoint" />
            <mxPoint x="389" y="412" as="targetPoint" />
          </mxGeometry>
        </mxCell>
      </root>
    </mxGraphModel>
  </diagram>
</mxfile>
